<?xml version="1.0" encoding="utf-8"?>
<!-- Generator: Adobe Illustrator 23.1.0, SVG Export Plug-In . SVG Version: 6.00 Build 0)  -->
<svg version="1.1" id="Layer_1" xmlns="http://www.w3.org/2000/svg" xmlns:xlink="http://www.w3.org/1999/xlink" x="0px" y="0px"
	 viewBox="0 0 200 40" style="enable-background:new 0 0 200 40;" xml:space="preserve">
<style type="text/css">
	.st0{fill:#FFFFFF;}
</style>
<path class="st0" d="M15.26,12.09H9.94l0.5-2.52h13.62l-0.53,2.52h-5.32l-2.68,13.53h-2.98L15.26,12.09z M35.19,14.31
	c0.8,0.72,1.2,1.74,1.2,3.07c0,0.37-0.05,0.85-0.16,1.44l-1.35,6.79h-2.87l1.33-6.72c0.06-0.31,0.09-0.62,0.09-0.94
	c0-1.48-0.82-2.22-2.45-2.22c-1.05,0-1.93,0.29-2.61,0.88c-0.69,0.59-1.15,1.47-1.4,2.65l-1.28,6.35h-2.87L26.22,8.6h2.87
	l-1.19,5.98c1.05-0.9,2.4-1.35,4.03-1.35C33.3,13.23,34.39,13.59,35.19,14.31z M45.33,13.62c0.77-0.26,1.69-0.39,2.76-0.39
	l-0.53,2.73c-0.26-0.05-0.5-0.07-0.71-0.07c-2.34,0-3.75,1.23-4.24,3.69l-1.22,6.03h-2.87l2.43-12.24h2.73l-0.32,1.58
	C43.9,14.33,44.55,13.88,45.33,13.62z M60.56,20.34h-9.72c0.05,2,1.22,3,3.53,3c0.7,0,1.36-0.11,1.97-0.33
	c0.61-0.22,1.13-0.53,1.56-0.93l1.19,1.99c-0.63,0.57-1.38,0.99-2.26,1.27c-0.88,0.28-1.8,0.42-2.76,0.42
	c-1.22,0-2.29-0.22-3.2-0.66c-0.91-0.44-1.61-1.07-2.1-1.89c-0.49-0.82-0.73-1.76-0.73-2.83c0-1.36,0.3-2.59,0.91-3.68
	c0.6-1.09,1.44-1.94,2.52-2.56c1.08-0.61,2.29-0.92,3.63-0.92c1.71,0,3.08,0.48,4.1,1.43c1.02,0.96,1.54,2.27,1.54,3.93
	C60.74,19.19,60.68,19.77,60.56,20.34z M52.5,16.3c-0.68,0.52-1.15,1.23-1.41,2.13h7.02c0.01-0.92-0.26-1.63-0.84-2.14
	c-0.57-0.51-1.34-0.77-2.3-0.77S53.18,15.79,52.5,16.3z M74.75,20.34h-9.72c0.05,2,1.22,3,3.53,3c0.7,0,1.36-0.11,1.97-0.33
	c0.61-0.22,1.13-0.53,1.56-0.93l1.19,1.99c-0.63,0.57-1.38,0.99-2.26,1.27c-0.88,0.28-1.8,0.42-2.76,0.42
	c-1.22,0-2.29-0.22-3.2-0.66c-0.91-0.44-1.61-1.07-2.1-1.89c-0.49-0.82-0.73-1.76-0.73-2.83c0-1.36,0.3-2.59,0.91-3.68
	c0.6-1.09,1.44-1.94,2.52-2.56c1.08-0.61,2.29-0.92,3.63-0.92c1.71,0,3.08,0.48,4.1,1.43c1.02,0.96,1.54,2.27,1.54,3.93
	C74.93,19.19,74.87,19.77,74.75,20.34z M66.69,16.3c-0.68,0.52-1.15,1.23-1.41,2.13h7.02c0.01-0.92-0.26-1.63-0.84-2.14
	c-0.57-0.51-1.34-0.77-2.3-0.77C68.19,15.53,67.37,15.79,66.69,16.3z M109.92,25.31c-1.13-0.35-2.02-0.8-2.66-1.35l1.26-2.34
	c0.67,0.54,1.47,0.96,2.4,1.27c0.92,0.31,1.87,0.47,2.83,0.47c1.18,0,2.11-0.2,2.81-0.61c0.7-0.4,1.04-0.96,1.04-1.66
	c0-0.4-0.14-0.73-0.42-1c-0.28-0.27-0.63-0.49-1.05-0.65c-0.42-0.17-1.01-0.36-1.75-0.57c-1.04-0.31-1.88-0.6-2.52-0.88
	c-0.64-0.28-1.19-0.71-1.65-1.27c-0.46-0.57-0.69-1.3-0.69-2.2c0-1.04,0.29-1.95,0.88-2.73c0.59-0.78,1.41-1.38,2.46-1.81
	c1.05-0.43,2.27-0.64,3.65-0.64c1.04,0,2.03,0.12,2.96,0.36c0.93,0.24,1.73,0.57,2.41,1l-1.17,2.36c-0.6-0.4-1.27-0.7-2.02-0.92
	c-0.75-0.21-1.53-0.32-2.34-0.32c-1.19,0-2.14,0.22-2.83,0.65c-0.7,0.44-1.04,1.01-1.04,1.73c0,0.41,0.15,0.76,0.44,1.03
	c0.29,0.28,0.64,0.49,1.05,0.65c0.41,0.16,1.02,0.36,1.81,0.61c1.01,0.29,1.83,0.57,2.48,0.85c0.64,0.28,1.19,0.68,1.64,1.22
	c0.45,0.54,0.68,1.23,0.68,2.09c0,1.05-0.29,1.97-0.88,2.75c-0.59,0.78-1.42,1.38-2.5,1.81c-1.08,0.43-2.31,0.64-3.7,0.64
	C112.23,25.84,111.05,25.67,109.92,25.31z M134,13.87c0.82,0.43,1.46,1.05,1.94,1.86c0.47,0.81,0.71,1.77,0.71,2.87
	c0,1.36-0.3,2.59-0.91,3.68c-0.6,1.09-1.43,1.95-2.48,2.57c-1.05,0.62-2.21,0.93-3.5,0.93c-0.96,0-1.8-0.17-2.52-0.5
	c-0.72-0.34-1.28-0.83-1.67-1.47l-1.24,6.26h-2.87l3.32-16.69h2.73l-0.25,1.28c1.07-0.95,2.4-1.42,3.99-1.42
	C132.27,13.23,133.18,13.45,134,13.87z M131.71,22.74c0.63-0.39,1.13-0.93,1.5-1.63c0.37-0.7,0.55-1.49,0.55-2.37
	c0-0.96-0.28-1.72-0.85-2.26c-0.57-0.54-1.36-0.81-2.38-0.81c-0.81,0-1.53,0.19-2.17,0.58c-0.63,0.39-1.13,0.93-1.5,1.63
	c-0.37,0.7-0.55,1.49-0.55,2.37c0,0.96,0.28,1.72,0.85,2.26c0.57,0.54,1.36,0.81,2.38,0.81C130.35,23.32,131.07,23.12,131.71,22.74z
	 M144.89,13.62c0.77-0.26,1.69-0.39,2.76-0.39l-0.53,2.73c-0.26-0.05-0.5-0.07-0.71-0.07c-2.34,0-3.75,1.23-4.24,3.69l-1.22,6.03
	h-2.87l2.43-12.24h2.73l-0.32,1.58C143.46,14.33,144.12,13.88,144.89,13.62z M150.04,13.37h2.87l-2.43,12.24h-2.87L150.04,13.37z
	 M150.88,10.88c-0.32-0.31-0.48-0.69-0.48-1.13c0-0.52,0.18-0.96,0.54-1.31c0.36-0.35,0.83-0.53,1.41-0.53
	c0.5,0,0.92,0.15,1.24,0.45c0.32,0.3,0.48,0.66,0.48,1.09c0,0.57-0.18,1.02-0.54,1.38c-0.36,0.35-0.83,0.53-1.41,0.53
	C151.62,11.35,151.21,11.2,150.88,10.88z M166.6,14.31c0.8,0.72,1.2,1.73,1.2,3.05c0,0.37-0.05,0.86-0.16,1.47l-1.35,6.79h-2.87
	l1.33-6.72c0.06-0.31,0.09-0.62,0.09-0.94c0-1.48-0.82-2.22-2.45-2.22c-1.05,0-1.93,0.29-2.61,0.88c-0.69,0.59-1.15,1.47-1.4,2.65
	l-1.28,6.35h-2.87l2.43-12.24h2.73l-0.28,1.35c1.1-0.99,2.51-1.49,4.22-1.49C164.71,13.23,165.8,13.59,166.6,14.31z M173.97,21.51
	c-0.03,0.24-0.05,0.42-0.05,0.53c0,0.92,0.48,1.38,1.44,1.38c0.6,0,1.13-0.16,1.6-0.48l0.5,2.11c-0.78,0.49-1.77,0.73-2.96,0.73
	c-1.05,0-1.9-0.29-2.54-0.87c-0.64-0.58-0.96-1.38-0.96-2.41c0-0.34,0.03-0.66,0.09-0.96l1.17-5.78h-1.99l0.46-2.29h1.99l0.55-2.8
	h2.87l-0.57,2.8h3.3l-0.46,2.29h-3.3L173.97,21.51z M180.86,25.39c-0.94-0.25-1.67-0.57-2.19-0.95l1.19-2.2
	c0.5,0.37,1.14,0.66,1.9,0.87c0.76,0.21,1.55,0.32,2.36,0.32c0.92,0,1.61-0.13,2.07-0.38c0.47-0.25,0.7-0.62,0.7-1.09
	c0-0.37-0.19-0.63-0.58-0.8c-0.39-0.17-1.01-0.34-1.85-0.53c-0.87-0.17-1.59-0.35-2.14-0.54c-0.56-0.19-1.04-0.5-1.44-0.94
	c-0.41-0.44-0.61-1.04-0.61-1.8c0-1.27,0.53-2.27,1.59-3.01c1.06-0.74,2.47-1.11,4.23-1.11c0.84,0,1.66,0.1,2.45,0.29
	c0.79,0.19,1.44,0.45,1.95,0.77l-1.05,2.2c-0.5-0.32-1.07-0.56-1.71-0.71c-0.63-0.15-1.27-0.23-1.91-0.23
	c-0.9,0-1.59,0.14-2.05,0.41c-0.47,0.28-0.7,0.63-0.7,1.08c0,0.4,0.2,0.68,0.61,0.86c0.4,0.18,1.04,0.36,1.89,0.54
	c0.86,0.17,1.56,0.35,2.11,0.54c0.55,0.19,1.02,0.5,1.42,0.93c0.4,0.43,0.6,1.01,0.6,1.74c0,1.31-0.54,2.33-1.6,3.05
	c-1.07,0.72-2.49,1.08-4.26,1.08C182.79,25.77,181.8,25.65,180.86,25.39z M81.92,20.38c-0.36,0-0.69-0.14-0.95-0.39
	c-0.53-0.52-0.54-1.38-0.02-1.91L92.56,6.27c0.52-0.53,1.38-0.54,1.91-0.02c0.26,0.25,0.4,0.59,0.4,0.95s-0.13,0.7-0.39,0.96
	L82.88,19.98C82.62,20.24,82.28,20.38,81.92,20.38z M105.01,12.31c-0.25-0.25-0.59-0.39-0.95-0.39c0,0-0.01,0-0.01,0
	c-0.36,0-0.7,0.15-0.95,0.4L84.84,30.89c-0.25,0.26-0.39,0.6-0.39,0.96c0,0.36,0.15,0.7,0.4,0.95c0.25,0.25,0.59,0.39,0.95,0.39
	c0.36,0,0.71-0.14,0.96-0.4c0,0,0,0,0,0l18.26-18.56C105.55,13.69,105.54,12.83,105.01,12.31z M96.27,13.95
	c0.25-0.26,0.39-0.6,0.39-0.96s-0.15-0.7-0.4-0.95c-0.25-0.25-0.59-0.39-0.95-0.39c0,0-0.01,0-0.01,0c-0.36,0-0.7,0.15-0.95,0.4
	L81.77,24.87c-0.25,0.26-0.39,0.6-0.39,0.96c0,0.36,0.15,0.7,0.4,0.95c0.25,0.25,0.59,0.39,0.95,0.39c0.37,0,0.71-0.14,0.96-0.4v0
	L96.27,13.95z"/>
</svg>
